<svg xmlns="http://www.w3.org/2000/svg" width="1113" height="576" viewBox="0 0 1113 576" fill="none"><g clip-path="url(#clip0_866_1065)"><path d="M578.473 125.793L829.886 127.007C829.886 127.007 806.06 72.3037 755.167 72.3037C716.38 72.3037 714.666 96.4514 691.348 103.368C668.03 110.285 618.974 68.0042 578.473 125.793Z" fill="white"></path><path d="M836.07 391.819H735.293V524.783H836.07V391.819Z" fill="#DADADA"></path><path d="M836.07 391.819H788.819V524.783H836.07V391.819Z" fill="#F5F5F5"></path><path d="M765.485 409.821H756.422V431.844H765.485V409.821Z" fill="#DADADA"></path><path d="M765.485 496.008H756.422V518.03H765.485V496.008Z" fill="#DADADA"></path><path d="M788.819 440.468C788.819 440.656 776.836 440.812 762.065 440.812C747.293 440.812 735.293 440.665 735.293 440.468C735.293 440.271 747.276 440.123 762.065 440.123C776.853 440.123 788.819 440.271 788.819 440.468Z" fill="#DADADA"></path><path d="M765.485 453.234H756.422V475.257H765.485V453.234Z" fill="#DADADA"></path><path d="M788.819 483.906C788.819 484.095 776.836 484.251 762.065 484.251C747.293 484.251 735.293 484.103 735.293 483.906C735.293 483.709 747.276 483.545 762.065 483.545C776.853 483.545 788.819 483.717 788.819 483.906Z" fill="#DADADA"></path><path d="M807.913 409.821H798.85V431.844H807.913V409.821Z" fill="#9D9D9C"></path><path d="M827.573 409.821H818.51V431.844H827.573V409.821Z" fill="#9D9D9C"></path><path d="M807.913 451.602H798.85V473.624H807.913V451.602Z" fill="#9D9D9C"></path><path d="M827.573 451.602H818.51V473.624H827.573V451.602Z" fill="#9D9D9C"></path><path d="M807.913 493.391H798.85V515.413H807.913V493.391Z" fill="#9D9D9C"></path><path d="M827.573 493.391H818.51V515.413H827.573V493.391Z" fill="#9D9D9C"></path><path d="M843.641 387.176H727.715V391.976H843.641V387.176Z" fill="#9D9D9C"></path><path d="M836.776 392.427C836.776 392.615 814.253 392.771 786.474 392.771C758.694 392.771 736.171 392.624 736.171 392.427C736.171 392.23 758.694 392.082 786.474 392.082C814.253 392.082 836.776 392.23 836.776 392.427Z" fill="#F5F5F5"></path><path d="M623.452 55.918H443.781V526.359H623.452V55.918Z" fill="#DADADA"></path><path d="M623.436 55.918H533.6V526.359H623.436V55.918Z" fill="#9D9D9C"></path><path d="M527.736 0H464.294V55.9179H527.736V0Z" fill="#DADADA"></path><path d="M527.711 0H512.603V55.9179H527.711V0Z" fill="#9D9D9C"></path><path d="M628.685 52.6523H428.804V55.918H628.685V52.6523Z" fill="#9D9D9C"></path><path d="M494.444 80.3115H479.238V112.385H494.444V80.3115Z" fill="white"></path><path d="M533.6 124.98C533.6 125.325 513.505 125.587 488.703 125.587C463.9 125.587 443.789 125.325 443.789 124.98C443.789 124.635 463.884 124.356 488.703 124.356C513.522 124.356 533.6 124.619 533.6 124.98Z" fill="#9D9D9C"></path><path d="M585.051 80.3115H569.844V112.385H585.051V80.3115Z" fill="#F5F5F5"></path><path d="M624.207 124.98C624.207 125.325 604.112 125.587 579.309 125.587C554.507 125.587 534.396 125.325 534.396 124.98C534.396 124.635 554.49 124.356 579.309 124.356C604.128 124.356 624.207 124.619 624.207 124.98Z" fill="#DADADA"></path><path d="M585.051 143.984H569.844V176.058H585.051V143.984Z" fill="#F5F5F5"></path><path d="M624.207 188.652C624.207 188.997 604.112 189.276 579.309 189.276C554.507 189.276 534.396 188.989 534.396 188.652C534.396 188.316 554.49 188.045 579.309 188.045C604.128 188.045 624.207 188.332 624.207 188.652Z" fill="#DADADA"></path><path d="M585.051 209.592H569.844V241.666H585.051V209.592Z" fill="#F5F5F5"></path><path d="M624.207 254.26C624.207 254.605 604.112 254.884 579.309 254.884C554.507 254.884 534.396 254.597 534.396 254.26C534.396 253.924 554.49 253.653 579.309 253.653C604.128 253.653 624.207 253.94 624.207 254.26Z" fill="#DADADA"></path><path d="M585.051 275.225H569.844V307.298H585.051V275.225Z" fill="#F5F5F5"></path><path d="M624.207 319.877C624.207 320.221 604.112 320.5 579.309 320.5C554.507 320.5 534.396 320.213 534.396 319.877C534.396 319.54 554.49 319.27 579.309 319.27C604.128 319.27 624.207 319.557 624.207 319.877Z" fill="#DADADA"></path><path d="M585.051 338.953H569.844V371.027H585.051V338.953Z" fill="#F5F5F5"></path><path d="M624.207 383.623C624.207 383.943 604.112 384.23 579.309 384.23C554.507 384.23 534.396 383.943 534.396 383.623C534.396 383.303 554.49 382.999 579.309 382.999C604.128 382.999 624.207 383.286 624.207 383.623Z" fill="#DADADA"></path><path d="M585.051 402.938H569.844V435.011H585.051V402.938Z" fill="#F5F5F5"></path><path d="M585.051 467.767H569.844V499.84H585.051V467.767Z" fill="#F5F5F5"></path><path d="M624.207 447.606C624.207 447.951 604.112 448.23 579.309 448.23C554.507 448.23 534.396 447.943 534.396 447.606C534.396 447.27 554.49 446.999 579.309 446.999C604.128 446.999 624.207 447.262 624.207 447.606Z" fill="#DADADA"></path><path d="M494.444 144.968H479.238V177.042H494.444V144.968Z" fill="white"></path><path d="M533.6 189.637C533.6 189.957 513.505 190.244 488.703 190.244C463.9 190.244 443.789 189.957 443.789 189.637C443.789 189.317 463.884 189.014 488.703 189.014C513.522 189.014 533.6 189.301 533.6 189.637Z" fill="#9D9D9C"></path><path d="M494.444 209.633H479.238V241.707H494.444V209.633Z" fill="white"></path><path d="M533.6 254.301C533.6 254.621 513.506 254.909 488.703 254.909C463.9 254.909 443.789 254.621 443.789 254.301C443.789 253.981 463.884 253.678 488.703 253.678C513.522 253.678 533.6 253.965 533.6 254.301Z" fill="#9D9D9C"></path><path d="M494.444 274.298H479.238V306.372H494.444V274.298Z" fill="white"></path><path d="M533.6 318.966C533.6 319.286 513.505 319.574 488.703 319.574C463.9 319.574 443.789 319.286 443.789 318.966C443.789 318.646 463.884 318.343 488.703 318.343C513.522 318.343 533.6 318.63 533.6 318.966Z" fill="#9D9D9C"></path><path d="M494.444 338.953H479.238V371.027H494.444V338.953Z" fill="white"></path><path d="M533.6 383.623C533.6 383.943 513.505 384.23 488.703 384.23C463.9 384.23 443.789 383.943 443.789 383.623C443.789 383.303 463.884 382.999 488.703 382.999C513.522 382.999 533.6 383.286 533.6 383.623Z" fill="#9D9D9C"></path><path d="M494.444 403.618H479.238V435.692H494.444V403.618Z" fill="white"></path><path d="M533.6 448.288C533.6 448.608 513.506 448.895 488.703 448.895C463.9 448.895 443.789 448.608 443.789 448.288C443.789 447.968 463.884 447.664 488.703 447.664C513.522 447.664 533.6 447.951 533.6 448.288Z" fill="#9D9D9C"></path><path d="M494.444 468.275H479.238V500.349H494.444V468.275Z" fill="white"></path><path d="M373.081 343.754H235.313V525.539H373.081V343.754Z" fill="#DADADA"></path><path d="M373.08 343.754H308.482V525.539H373.08V343.754Z" fill="#9D9D9C"></path><path d="M276.568 368.353H264.184V398.457H276.568V368.353Z" fill="#F5F5F5"></path><path d="M276.568 486.203H264.184V516.308H276.568V486.203Z" fill="#F5F5F5"></path><path d="M308.482 410.29C308.482 410.61 292.103 410.897 271.885 410.897C251.668 410.897 235.313 410.61 235.313 410.29C235.313 409.97 251.692 409.666 271.885 409.666C292.078 409.666 308.482 409.953 308.482 410.29Z" fill="#F5F5F5"></path><path d="M276.568 427.725H264.184V457.829H276.568V427.725Z" fill="#F5F5F5"></path><path d="M308.482 469.645C308.482 469.99 292.103 470.269 271.885 470.269C251.668 470.269 235.313 469.982 235.313 469.645C235.313 469.309 251.692 469.038 271.885 469.038C292.078 469.038 308.482 469.325 308.482 469.645Z" fill="#F5F5F5"></path><path d="M334.572 368.353H322.188V398.457H334.572V368.353Z" fill="#F5F5F5"></path><path d="M361.458 368.353H349.073V398.457H361.458V368.353Z" fill="#F5F5F5"></path><path d="M334.572 425.484H322.188V455.589H334.572V425.484Z" fill="#F5F5F5"></path><path d="M361.458 425.484H349.073V455.589H361.458V425.484Z" fill="#F5F5F5"></path><path d="M334.572 482.618H322.188V512.723H334.572V482.618Z" fill="#F5F5F5"></path><path d="M361.458 482.618H349.073V512.723H361.458V482.618Z" fill="#F5F5F5"></path><path d="M383.456 337.42H224.962V343.984H383.456V337.42Z" fill="#9D9D9C"></path><path d="M374.048 344.648C374.048 344.993 343.258 345.272 305.275 345.272C267.292 345.272 236.486 344.985 236.486 344.648C236.486 344.312 267.276 344.041 305.275 344.041C343.275 344.041 374.048 344.271 374.048 344.648Z" fill="#DADADA"></path><path d="M93.387 222.622L288.264 223.426C288.264 223.426 269.868 181.186 230.367 181.161C200.299 181.161 198.97 199.885 180.926 205.227C162.874 210.577 124.784 177.822 93.3952 222.622H93.387Z" fill="white"></path><path d="M764.574 249.518H659.516V524.611H764.574V249.518Z" fill="#455A64"></path><path d="M764.55 249.518H712.033V524.611H764.55V249.518Z" fill="#263238"></path><path d="M708.621 216.82H671.515V249.518H708.621V216.82Z" fill="#455A64"></path><path d="M708.596 216.82H699.763V249.518H708.596V216.82Z" fill="#263238"></path><path d="M767.65 247.606H650.756V249.518H767.65V247.606Z" fill="#455A64"></path><path d="M689.15 263.787H680.259V282.544H689.15V263.787Z" fill="#263238"></path><path d="M712.033 289.904C712.033 290.093 700.28 290.265 685.77 290.265C671.261 290.265 659.508 290.093 659.508 289.904C659.508 289.715 671.261 289.543 685.77 289.543C700.28 289.543 712.033 289.641 712.033 289.904Z" fill="#263238"></path><path d="M742.117 263.787H733.227V282.544H742.117V263.787Z" fill="#455A64"></path><path d="M765.026 289.904C765.026 290.093 753.272 290.265 738.763 290.265C724.254 290.265 712.5 290.093 712.5 289.904C712.5 289.715 724.254 289.543 738.763 289.543C753.272 289.543 765.026 289.641 765.026 289.904Z" fill="#455A64"></path><path d="M742.117 301.021H733.227V319.778H742.117V301.021Z" fill="#455A64"></path><path d="M765.026 327.138C765.026 327.343 753.272 327.499 738.763 327.499C724.254 327.499 712.5 327.352 712.5 327.138C712.5 326.925 724.254 326.777 738.763 326.777C753.272 326.777 765.026 326.95 765.026 327.138Z" fill="#455A64"></path><path d="M742.117 339.389H733.227V358.146H742.117V339.389Z" fill="#455A64"></path><path d="M765.026 365.514C765.026 365.703 753.272 365.875 738.763 365.875C724.254 365.875 712.5 365.703 712.5 365.514C712.5 365.326 724.254 365.153 738.763 365.153C753.272 365.153 765.026 365.301 765.026 365.514Z" fill="#455A64"></path><path d="M742.117 377.748H733.227V396.505H742.117V377.748Z" fill="#455A64"></path><path d="M765.026 403.865C765.026 404.07 753.272 404.226 738.763 404.226C724.254 404.226 712.5 404.078 712.5 403.865C712.5 403.652 724.254 403.521 738.763 403.521C753.272 403.521 765.026 403.668 765.026 403.865Z" fill="#455A64"></path><path d="M742.117 415.016H733.227V433.773H742.117V415.016Z" fill="#455A64"></path><path d="M765.026 441.133C765.026 441.338 753.272 441.494 738.763 441.494C724.254 441.494 712.5 441.346 712.5 441.133C712.5 440.919 724.254 440.771 738.763 440.771C753.272 440.771 765.026 440.944 765.026 441.133Z" fill="#455A64"></path><path d="M742.117 452.439H733.227V471.196H742.117V452.439Z" fill="#455A64"></path><path d="M742.117 490.355H733.227V509.112H742.117V490.355Z" fill="#455A64"></path><path d="M765.026 478.556C765.026 478.761 753.272 478.917 738.763 478.917C724.254 478.917 712.5 478.77 712.5 478.556C712.5 478.343 724.254 478.195 738.763 478.195C753.272 478.195 765.026 478.368 765.026 478.556Z" fill="#455A64"></path><path d="M689.15 301.588H680.259V320.345H689.15V301.588Z" fill="#263238"></path><path d="M712.033 327.705C712.033 327.893 700.28 328.066 685.77 328.066C671.261 328.066 659.508 327.893 659.508 327.705C659.508 327.516 671.261 327.344 685.77 327.344C700.28 327.344 712.033 327.573 712.033 327.705Z" fill="#263238"></path><path d="M689.15 339.389H680.259V358.146H689.15V339.389Z" fill="#263238"></path><path d="M712.033 365.514C712.033 365.719 700.28 365.875 685.77 365.875C671.261 365.875 659.508 365.727 659.508 365.514C659.508 365.3 671.261 365.169 685.77 365.169C700.28 365.169 712.033 365.317 712.033 365.514Z" fill="#263238"></path><path d="M689.15 377.214H680.259V395.971H689.15V377.214Z" fill="#263238"></path><path d="M712.033 403.332C712.033 403.52 700.28 403.693 685.77 403.693C671.261 403.693 659.508 403.52 659.508 403.332C659.508 403.143 671.261 402.971 685.77 402.971C700.28 402.971 712.033 403.118 712.033 403.332Z" fill="#263238"></path><path d="M689.15 415.016H680.259V433.773H689.15V415.016Z" fill="#263238"></path><path d="M712.033 441.133C712.033 441.338 700.28 441.494 685.77 441.494C671.261 441.494 659.508 441.346 659.508 441.133C659.508 440.919 671.261 440.771 685.77 440.771C700.28 440.771 712.033 440.944 712.033 441.133Z" fill="#263238"></path><path d="M689.15 452.842H680.259V471.599H689.15V452.842Z" fill="#263238"></path><path d="M712.033 478.958C712.033 479.146 700.28 479.319 685.77 479.319C671.261 479.319 659.508 479.146 659.508 478.958C659.508 478.769 671.261 478.597 685.77 478.597C700.28 478.597 712.033 478.744 712.033 478.958Z" fill="#263238"></path><path d="M689.15 490.643H680.259V509.4H689.15V490.643Z" fill="#263238"></path><path d="M501.498 151.213H360.942V524.727H501.498V151.213Z" fill="#455A64"></path><path d="M501.514 151.213H447.57V524.727H501.514V151.213Z" fill="#263238"></path><path d="M479.878 180.686H469.207V203.217H479.878V180.686Z" fill="#455A64"></path><path d="M479.878 220.218H469.207V242.749H479.878V220.218Z" fill="#455A64"></path><path d="M479.878 264.484H469.207V287.016H479.878V264.484Z" fill="#455A64"></path><path d="M479.878 306.789H469.207V329.32H479.878V306.789Z" fill="#455A64"></path><path d="M479.878 349.104H469.207V371.635H479.878V349.104Z" fill="#455A64"></path><path d="M479.878 391.4H469.207V413.932H479.878V391.4Z" fill="#455A64"></path><path d="M479.878 433.715H469.207V456.246H479.878V433.715Z" fill="#455A64"></path><path d="M479.878 480.23H469.207V502.762H479.878V480.23Z" fill="#455A64"></path><path d="M508.511 148.857H348.713V153.223H508.511V148.857Z" fill="#263238"></path><path d="M474.546 122.568H417.65V151.04H474.546V122.568Z" fill="#263238"></path><path d="M447.57 122.568H417.65V148.858H447.57V122.568Z" fill="#455A64"></path><path d="M391.617 179.758H380.946V202.289H391.617V179.758Z" fill="#263238"></path><path d="M420.061 179.758H409.39V202.289H420.061V179.758Z" fill="#263238"></path><path d="M391.617 222.679H380.946V245.21H391.617V222.679Z" fill="#263238"></path><path d="M420.061 222.679H409.39V245.21H420.061V222.679Z" fill="#263238"></path><path d="M391.617 265.608H380.946V288.14H391.617V265.608Z" fill="#263238"></path><path d="M420.061 265.608H409.39V288.14H420.061V265.608Z" fill="#263238"></path><path d="M391.617 308.529H380.946V331.061H391.617V308.529Z" fill="#263238"></path><path d="M420.061 308.529H409.39V331.061H420.061V308.529Z" fill="#263238"></path><path d="M391.617 351.459H380.946V373.99H391.617V351.459Z" fill="#263238"></path><path d="M420.061 351.459H409.39V373.99H420.061V351.459Z" fill="#263238"></path><path d="M391.617 394.379H380.946V416.91H391.617V394.379Z" fill="#263238"></path><path d="M420.061 394.379H409.39V416.91H420.061V394.379Z" fill="#263238"></path><path d="M391.617 437.301H380.946V459.832H391.617V437.301Z" fill="#263238"></path><path d="M420.061 437.301H409.39V459.832H420.061V437.301Z" fill="#263238"></path><path d="M391.617 480.23H380.946V502.762H391.617V480.23Z" fill="#263238"></path><path d="M420.061 480.23H409.39V502.762H420.061V480.23Z" fill="#263238"></path><path d="M447.57 211.134C447.57 211.512 428.173 211.815 404.264 211.815C380.356 211.815 360.942 211.512 360.942 211.134C360.942 210.757 380.339 210.47 404.264 210.47C428.189 210.47 447.57 210.773 447.57 211.134Z" fill="#263238"></path><path d="M447.57 254.204C447.57 254.581 428.173 254.885 404.264 254.885C380.356 254.885 360.942 254.581 360.942 254.204C360.942 253.826 380.339 253.539 404.264 253.539C428.189 253.539 447.57 253.843 447.57 254.204Z" fill="#263238"></path><path d="M447.57 297.814C447.57 298.175 428.173 298.478 404.264 298.478C380.356 298.478 360.942 298.175 360.942 297.814C360.942 297.453 380.339 297.133 404.264 297.133C428.189 297.133 447.57 297.436 447.57 297.814Z" fill="#263238"></path><path d="M447.57 341.095C447.57 341.456 428.173 341.76 404.264 341.76C380.356 341.76 360.942 341.456 360.942 341.095C360.942 340.734 380.339 340.414 404.264 340.414C428.189 340.414 447.57 340.718 447.57 341.095Z" fill="#263238"></path><path d="M447.57 383.754C447.57 384.115 428.173 384.419 404.264 384.419C380.356 384.419 360.942 384.115 360.942 383.754C360.942 383.393 380.339 383.073 404.264 383.073C428.189 383.073 447.57 383.377 447.57 383.754Z" fill="#263238"></path><path d="M447.57 425.256C447.57 425.617 428.173 425.921 404.264 425.921C380.356 425.921 360.942 425.617 360.942 425.256C360.942 424.895 380.339 424.575 404.264 424.575C428.189 424.575 447.57 424.879 447.57 425.256Z" fill="#263238"></path><path d="M447.57 471.253C447.57 471.614 428.173 471.918 404.264 471.918C380.356 471.918 360.942 471.614 360.942 471.253C360.942 470.892 380.339 470.572 404.264 470.572C428.189 470.572 447.57 470.876 447.57 471.253Z" fill="#263238"></path><path d="M500.891 211.134C500.891 211.512 489.343 211.815 475.104 211.815C460.866 211.815 449.317 211.512 449.317 211.134C449.317 210.757 460.849 210.47 475.104 210.47C489.359 210.47 500.891 210.773 500.891 211.134Z" fill="#455A64"></path><path d="M500.891 254.204C500.891 254.581 489.343 254.885 475.104 254.885C460.866 254.885 449.317 254.581 449.317 254.204C449.317 253.826 460.849 253.539 475.104 253.539C489.359 253.539 500.891 253.843 500.891 254.204Z" fill="#455A64"></path><path d="M500.891 297.222C500.891 297.6 489.343 297.903 475.104 297.903C460.866 297.903 449.317 297.657 449.317 297.222C449.317 296.787 460.849 296.558 475.104 296.558C489.359 296.558 500.891 296.919 500.891 297.222Z" fill="#455A64"></path><path d="M500.317 341.095C500.317 341.456 488.769 341.76 474.53 341.76C460.291 341.76 448.743 341.456 448.743 341.095C448.743 340.734 460.291 340.414 474.53 340.414C488.769 340.414 500.317 340.718 500.317 341.095Z" fill="#455A64"></path><path d="M500.317 383.754C500.317 384.115 488.769 384.419 474.53 384.419C460.291 384.419 448.743 384.115 448.743 383.754C448.743 383.393 460.291 383.073 474.53 383.073C488.769 383.073 500.317 383.377 500.317 383.754Z" fill="#455A64"></path><path d="M500.317 426.412C500.317 426.774 488.769 427.077 474.53 427.077C460.291 427.077 448.743 426.774 448.743 426.412C448.743 426.051 460.291 425.731 474.53 425.731C488.769 425.731 500.317 426.035 500.317 426.412Z" fill="#455A64"></path><path d="M500.317 471.253C500.317 471.614 488.769 471.918 474.53 471.918C460.291 471.918 448.743 471.614 448.743 471.253C448.743 470.892 460.291 470.572 474.53 470.572C488.769 470.572 500.317 470.876 500.317 471.253Z" fill="#455A64"></path><path d="M525.521 410.691H468.846V540.792H525.521V410.691Z" fill="#FF725E"></path><path d="M525.521 410.691H468.846V540.792H525.521V410.691Z" fill="#DADADA"></path><path d="M455.592 410.158H595.426L621.557 373.063L648.935 411.225L681.128 410.708L646.426 363.955L490.515 364.62L455.592 410.158Z" fill="#FF725E"></path><path d="M455.592 410.158H595.426L621.557 373.063L648.935 411.225L681.128 410.708L646.426 363.955L490.515 364.62L455.592 410.158Z" fill="#F94335"></path><path d="M525.521 410.708V540.792H665.159V410.708H649.141L621.558 373.062L595.328 410.125L525.521 410.708Z" fill="white"></path><path d="M545.255 540.792V484.398H577.907V540.792" fill="#F94335"></path><path opacity="0.3" d="M648.952 482.807H597.493V514.692H648.952V482.807Z" fill="black"></path><path opacity="0.3" d="M648.952 419.003H597.493V450.888H648.952V419.003Z" fill="black"></path><path opacity="0.3" d="M574.495 419.282H542.056V450.01H574.495V419.282Z" fill="black"></path><path d="M612.585 482.807H612.109V514.995H612.585V482.807Z" fill="#F94335"></path><path d="M633.975 482.807H633.5V514.995H633.975V482.807Z" fill="#F94335"></path><path d="M633.729 499.635H612.338V500.111H633.729V499.635Z" fill="#F94335"></path><path d="M612.585 419.003H612.109V451.192H612.585V419.003Z" fill="#F94335"></path><path d="M633.975 419.003H633.5V451.192H633.975V419.003Z" fill="#F94335"></path><path d="M633.729 435.823H612.339V436.299H633.729V435.823Z" fill="#F94335"></path><path d="M558.509 419.282H558.034V450.01H558.509V419.282Z" fill="#F94335"></path><path d="M574.495 435.159H542.056V435.635H574.495V435.159Z" fill="#F94335"></path><path d="M628.357 397.891C628.357 401.69 625.273 404.775 621.475 404.775C617.678 404.775 614.594 401.69 614.594 397.891C614.594 394.092 617.678 391.007 621.475 391.007C625.273 391.015 628.349 394.092 628.357 397.891Z" fill="#F94335"></path><path d="M572.387 389.449L581.073 378.733V352.952H562.889V389.637L572.387 389.449Z" fill="#DADADA"></path><path opacity="0.2" d="M572.387 389.449V352.952H581.073V378.733L572.387 389.449Z" fill="black"></path><path d="M582.311 349.161H560.863V352.952H582.311V349.161Z" fill="#DADADA"></path><path d="M527.129 467.61H420.061V540.808H527.129V467.61Z" fill="white"></path><path d="M486.078 467.61H420.061V540.808H486.078V467.61Z" fill="#DADADA"></path><path d="M472.184 540.677C472.11 540.365 472.078 540.045 472.086 539.725V536.976C472.086 534.433 472.086 530.987 471.938 526.679C471.938 517.76 471.823 505.452 471.749 491.208L472.283 491.741H433.094L433.602 491.208C433.602 505.452 433.471 517.76 433.414 526.679C433.414 530.987 433.299 534.433 433.266 536.976C433.266 538.076 433.266 538.987 433.168 539.725C433.2 540.037 433.2 540.357 433.168 540.677C433.086 540.365 433.053 540.045 433.069 539.725V536.976C433.069 534.433 433.069 530.987 432.922 526.679C432.922 517.785 432.807 505.452 432.733 491.208V490.675H472.89V491.208C472.791 505.452 472.742 517.76 472.684 526.679C472.684 530.987 472.57 534.433 472.537 536.976V539.725C472.455 540.053 472.34 540.365 472.192 540.677H472.184Z" fill="#F94335"></path><path d="M522.158 489.329H494.346V496.427H522.158V489.329Z" fill="#F94335"></path><path d="M455.592 410.158V413.932H595.328V410.125L455.592 410.158Z" fill="#FF725E"></path><path d="M595.328 413.932L621.476 377.231L621.558 373.062L595.426 410.158L595.328 413.932Z" fill="#FF725E"></path><path d="M680.447 410.691H649.141V413.12H680.447V410.691Z" fill="#FF725E"></path><path opacity="0.3" d="M566.777 475.75H555.229V480.148H566.777V475.75Z" fill="black"></path><path d="M455.592 410.158V413.932H595.328V410.125L455.592 410.158Z" fill="#DADADA"></path><path d="M595.328 413.932L621.476 377.231L621.558 373.062L595.426 410.158L595.328 413.932Z" fill="#DADADA"></path><path d="M680.447 410.691H649.141V413.12H680.447V410.691Z" fill="#DADADA"></path><path opacity="0.3" d="M575.274 512.853C575.176 512.853 575.274 512.131 574.421 511.582C573.978 511.286 573.42 511.221 572.92 511.409C572.124 511.729 571.739 512.64 572.059 513.436C572.215 513.83 572.526 514.133 572.92 514.297C573.42 514.486 573.978 514.429 574.421 514.125C575.2 513.575 575.176 512.837 575.274 512.853C575.372 512.87 575.594 513.666 574.708 514.503C574.15 514.962 573.396 515.093 572.715 514.864C571.608 514.486 571.009 513.28 571.394 512.164C571.608 511.541 572.1 511.048 572.715 510.843C573.396 510.613 574.15 510.745 574.708 511.204C575.602 512.058 575.331 512.911 575.274 512.853Z" fill="black"></path><path d="M669.244 519.492C663.15 517.9 657.826 513.888 654.866 508.661C651.896 503.418 651.347 497.149 653.348 491.463C654.923 487.09 657.95 483.241 659.245 478.786C660.722 473.732 659.852 468.374 658.942 463.205C658.032 458.035 657.121 452.694 658.483 447.615C659.852 442.536 664.208 437.769 669.801 437.408C674.993 437.071 679.783 440.665 681.948 445.079C684.114 449.494 684.13 454.565 683.621 459.397C683.121 464.23 682.129 469.063 682.44 473.912C683.072 483.734 688.953 492.973 688.264 502.786C687.903 507.898 685.787 511.163 682.17 515.012C679.045 518.318 673.861 520.501 669.252 519.492" fill="#77BA1F"></path><path d="M671.081 568.132C670.892 541.376 670.359 500.391 670.408 474.02C670.408 473.568 670.408 472.19 670.416 471.739C670.433 471.542 670.392 471.238 670.457 470.967C670.498 470.697 670.843 470.401 671.073 470.344C671.45 470.442 671.77 470.893 671.729 471.263C671.729 471.312 671.729 471.681 671.729 471.739C671.729 472.198 671.729 473.536 671.737 474.02C671.762 504.223 671.261 537.946 671.064 568.132H671.081ZM671.081 568.132C671.212 537.954 670.597 504.223 670.474 474.028C670.474 473.33 670.449 471.985 670.441 471.287C670.441 471.484 670.802 471.78 671.081 471.64C671.155 471.673 671.278 471.689 671.409 471.64C671.54 471.599 671.647 471.476 671.68 471.386C671.721 471.296 671.712 471.214 671.712 471.287C671.696 471.993 671.688 473.306 671.68 474.028C671.556 504.231 670.941 537.946 671.081 568.132Z" fill="#030303"></path><path d="M670.802 502.515C668.473 501.112 666.471 499.16 664.593 497.133L665.487 496.214C667.562 498.027 669.367 500.202 670.794 502.507L670.802 502.515ZM670.802 502.515C668.669 500.874 666.726 499.028 664.724 497.264L665.618 496.345C667.431 498.306 669.129 500.398 670.794 502.515H670.802Z" fill="#030303"></path><path d="M393.216 519.492C387.122 517.9 381.799 513.888 378.838 508.661C375.869 503.418 375.32 497.149 377.321 491.463C378.896 487.09 381.922 483.241 383.218 478.786C384.694 473.732 383.825 468.374 382.915 463.205C382.004 458.035 381.094 452.694 382.455 447.615C383.825 442.536 388.18 437.769 393.774 437.408C398.966 437.071 403.756 440.665 405.921 445.079C408.086 449.494 408.103 454.565 407.594 459.397C407.086 464.23 406.101 469.063 406.413 473.912C407.045 483.734 412.925 492.973 412.236 502.786C411.876 507.898 409.759 511.163 406.142 515.012C403.017 518.318 397.834 520.501 393.224 519.492" fill="#77BA1F"></path><path d="M395.062 568.132C394.873 541.376 394.34 500.391 394.389 474.02C394.389 473.568 394.389 472.19 394.397 471.739C394.414 471.542 394.373 471.238 394.438 470.967C394.479 470.697 394.832 470.401 395.062 470.344C395.439 470.442 395.759 470.893 395.718 471.263C395.718 471.312 395.718 471.681 395.718 471.739C395.718 472.198 395.718 473.536 395.726 474.02C395.751 504.223 395.25 537.946 395.054 568.132H395.062ZM395.062 568.132C395.193 537.954 394.578 504.223 394.455 474.028C394.455 473.33 394.43 471.985 394.422 471.287C394.422 471.484 394.783 471.78 395.062 471.64C395.136 471.673 395.259 471.689 395.39 471.64C395.521 471.599 395.628 471.476 395.66 471.386C395.701 471.296 395.693 471.214 395.693 471.287C395.677 471.993 395.669 473.306 395.66 474.028C395.537 504.231 394.922 537.946 395.062 568.132Z" fill="#030303"></path><path d="M394.775 502.515C392.445 501.112 390.444 499.16 388.566 497.133L389.46 496.214C391.535 498.027 393.339 500.202 394.766 502.507L394.775 502.515ZM394.775 502.515C392.642 500.874 390.698 499.028 388.697 497.264L389.591 496.345C391.404 498.306 393.101 500.398 394.766 502.515H394.775Z" fill="#030303"></path><path d="M1069.01 529.149C1064.41 530.158 1059.22 527.984 1056.1 524.669C1052.47 520.821 1050.35 517.555 1050 512.443C1049.31 502.63 1055.19 493.391 1055.82 483.569C1056.13 478.72 1055.14 473.887 1054.64 469.055C1054.14 464.222 1054.15 459.151 1056.32 454.737C1058.48 450.322 1063.27 446.728 1068.46 447.065C1074.06 447.426 1078.42 452.193 1079.78 457.272C1081.15 462.351 1080.24 467.693 1079.32 472.862C1078.41 478.031 1077.54 483.389 1079.02 488.443C1080.32 492.899 1083.34 496.747 1084.92 501.12C1086.92 506.806 1086.37 513.075 1083.4 518.318C1080.44 523.545 1075.12 527.549 1069.02 529.149" fill="#77BA1F"></path><path d="M1067.08 529.222C1067.06 515.585 1066.91 494.867 1066.84 481.403V481.025C1066.84 480.943 1066.82 480.96 1066.86 480.746C1066.89 480.541 1067.09 480.377 1067.17 480.336C1067.23 480.369 1067.45 480.525 1067.49 480.73C1067.55 481.501 1067.54 482.863 1067.56 483.684C1067.96 509.366 1068 539.938 1067.68 565.653C1067.64 568.894 1067.59 574.203 1067.51 577.419C1067.51 577.501 1067.53 577.485 1067.49 577.706C1067.45 577.911 1067.25 578.075 1067.18 578.125C1067.1 578.092 1066.9 577.928 1066.86 577.723C1066.81 577.329 1066.85 576.705 1066.83 576.287C1066.92 563.241 1067.05 542.473 1067.07 529.23L1067.08 529.222ZM1067.08 529.222C1067.13 543.015 1067.23 563.782 1067.49 577.411C1067.49 577.46 1067.5 577.591 1067.47 577.493C1067.44 577.411 1067.23 577.394 1067.17 577.46C1067.09 577.378 1066.9 577.419 1066.86 577.493C1066.84 577.583 1066.86 577.435 1066.85 577.394V577.017C1066.85 576.599 1066.85 575.195 1066.85 574.744C1066.63 549.07 1066.54 518.498 1066.79 492.783C1066.81 489.55 1066.86 484.242 1066.86 481.025C1066.86 480.976 1066.84 480.845 1066.87 480.943C1066.91 481.025 1067.11 481.042 1067.18 480.968C1067.25 481.05 1067.45 481.009 1067.47 480.935C1067.5 480.845 1067.47 480.992 1067.48 481.033V481.411C1067.22 494.793 1067.12 515.643 1067.08 529.222Z" fill="#030303"></path><path d="M1068.23 511.294C1069.88 509.637 1071.06 507.503 1072.78 505.903L1073.63 506.773C1071.92 508.931 1069.6 510.523 1067.46 512.197L1067.42 512.156C1067.7 511.877 1067.96 511.589 1068.23 511.294H1068.23ZM1068.23 511.294C1067.98 511.589 1067.73 511.885 1067.48 512.188L1067.44 512.147C1067.87 511.721 1068.43 511.122 1068.78 510.638C1069.94 509.112 1071.3 507.331 1072.65 506.018L1073.51 506.896C1071.74 508.234 1069.77 509.678 1068.23 511.294Z" fill="#030303"></path><path d="M896.945 423.958H840.975V552.442H896.945V423.958Z" fill="#FF725E"></path><path d="M896.945 423.958H840.975V552.442H896.945V423.958Z" fill="#DADADA"></path><path d="M827.893 423.433H965.981L991.784 386.798L1018.83 424.484L1050.62 423.975L1016.35 377.805L862.382 378.461L827.893 423.433Z" fill="#FF725E"></path><path d="M827.893 423.433H965.981L991.784 386.798L1018.83 424.484L1050.62 423.975L1016.35 377.805L862.382 378.461L827.893 423.433Z" fill="#FFCB00"></path><path d="M896.945 423.974V552.442H1034.85V423.974H1019.03L991.784 386.797L965.89 423.4L896.945 423.974Z" fill="white"></path><path d="M916.441 552.443V496.755H948.683V552.443" fill="#FFCB00"></path><path opacity="0.3" d="M1018.84 495.18H968.023V526.671H1018.84V495.18Z" fill="black"></path><path opacity="0.3" d="M1018.84 432.163H968.023V463.654H1018.84V432.163Z" fill="black"></path><path opacity="0.3" d="M945.312 432.443H913.275V462.786H945.312V432.443Z" fill="black"></path><path d="M982.926 495.18H982.458V526.966H982.926V495.18Z" fill="#FFCB00"></path><path d="M1004.05 495.18H1003.58V526.966H1004.05V495.18Z" fill="#FFCB00"></path><path d="M1003.81 511.795H982.688V512.263H1003.81V511.795Z" fill="#FFCB00"></path><path d="M982.926 432.163H982.458V463.95H982.926V432.163Z" fill="#FFCB00"></path><path d="M1004.05 432.163H1003.58V463.95H1004.05V432.163Z" fill="#FFCB00"></path><path d="M1003.81 448.778H982.688V449.246H1003.81V448.778Z" fill="#FFCB00"></path><path d="M929.523 432.443H929.056V462.786H929.523V432.443Z" fill="#FFCB00"></path><path d="M945.312 448.122H913.275V448.59H945.312V448.122Z" fill="#FFCB00"></path><path d="M998.509 411.315C998.509 415.073 995.467 418.117 991.71 418.117C987.954 418.117 984.911 415.073 984.911 411.315C984.911 407.557 987.954 404.513 991.71 404.513C995.458 404.521 998.493 407.565 998.509 411.315Z" fill="#FFCB00"></path><path d="M943.237 402.978L951.808 392.394V366.941H933.854V403.167L943.237 402.978Z" fill="#DADADA"></path><path opacity="0.2" d="M943.237 402.978V366.941H951.808V392.394L943.237 402.978Z" fill="black"></path><path d="M953.022 363.191H931.844V366.941H953.022V363.191Z" fill="#DADADA"></path><path d="M898.536 480.172H792.797V552.459H898.536V480.172Z" fill="white"></path><path d="M857.994 480.172H792.797V552.459H857.994V480.172Z" fill="#DADADA"></path><path d="M844.272 552.328C844.198 552.024 844.174 551.704 844.182 551.392V548.676C844.182 546.166 844.182 542.761 844.034 538.502C844.034 529.698 843.92 517.538 843.846 503.474L844.371 503.999H805.666L806.174 503.474C806.174 517.538 806.043 529.698 805.986 538.502C805.986 542.752 805.871 546.166 805.838 548.676C805.838 549.76 805.838 550.662 805.748 551.392C805.781 551.704 805.781 552.016 805.748 552.328C805.666 552.024 805.633 551.704 805.658 551.392V548.676C805.658 546.166 805.658 542.761 805.51 538.502C805.51 529.714 805.395 517.538 805.321 503.474V502.949H844.978V503.474C844.887 517.538 844.83 529.698 844.773 538.502C844.773 542.752 844.658 546.166 844.625 548.676C844.625 549.76 844.625 550.662 844.625 551.392C844.543 551.712 844.428 552.024 844.289 552.328H844.272Z" fill="#FFCB00"></path><path d="M893.632 501.62H866.163V508.627H893.632V501.62Z" fill="#FFCB00"></path><path d="M827.893 423.433V427.158H965.89V423.4L827.893 423.433Z" fill="#FF725E"></path><path d="M965.89 427.158L991.71 390.916L991.784 386.797L965.981 423.433L965.89 427.158Z" fill="#FF725E"></path><path d="M1049.94 423.958H1019.03V426.354H1049.94V423.958Z" fill="#FF725E"></path><path opacity="0.3" d="M937.684 488.213H926.283V492.562H937.684V488.213Z" fill="black"></path><path d="M827.893 423.433V427.158H965.89V423.4L827.893 423.433Z" fill="#DADADA"></path><path d="M965.89 427.158L991.71 390.916L991.784 386.797L965.981 423.433L965.89 427.158Z" fill="#DADADA"></path><path d="M1049.94 423.958H1019.03V426.354H1049.94V423.958Z" fill="#DADADA"></path><path opacity="0.3" d="M946.083 524.849C945.993 524.849 946.083 524.135 945.238 523.594C944.803 523.298 944.254 523.233 943.762 523.422C942.974 523.742 942.597 524.636 942.917 525.424C943.073 525.809 943.376 526.113 943.762 526.269C944.254 526.457 944.803 526.392 945.238 526.096C946.009 525.555 945.984 524.825 946.083 524.841C946.181 524.857 946.403 525.645 945.525 526.474C944.976 526.925 944.229 527.056 943.557 526.827C942.458 526.449 941.875 525.259 942.252 524.16C942.466 523.545 942.941 523.061 943.557 522.855C944.229 522.626 944.976 522.765 945.525 523.208C946.403 524.053 946.14 524.89 946.083 524.841V524.849Z" fill="black"></path><path d="M131.829 412.536H75.8594V541.02H131.829V412.536Z" fill="#FF725E"></path><path d="M131.829 412.536H75.8594V541.02H131.829V412.536Z" fill="#DADADA"></path><path d="M62.7693 412.012H200.865L226.668 375.367L253.702 413.062L285.501 412.553L251.233 366.383L97.2583 367.031L62.7693 412.012Z" fill="#FF725E"></path><path d="M62.7693 412.012H200.865L226.668 375.367L253.702 413.062L285.501 412.553L251.233 366.383L97.2583 367.031L62.7693 412.012Z" fill="#FB9125"></path><path d="M131.829 412.553V541.012H269.728V412.553H253.907L226.668 375.367L200.766 411.97L131.829 412.553Z" fill="white"></path><path d="M151.317 541.012V485.324H183.559V541.012" fill="#FB9125"></path><path opacity="0.3" d="M253.726 483.749H202.907V515.24H253.726V483.749Z" fill="black"></path><path opacity="0.3" d="M253.726 420.741H202.907V452.232H253.726V420.741Z" fill="black"></path><path opacity="0.3" d="M180.188 421.021H148.151V451.364H180.188V421.021Z" fill="black"></path><path d="M217.81 483.749H217.343V515.536H217.81V483.749Z" fill="#FB9125"></path><path d="M238.93 483.749H238.462V515.536H238.93V483.749Z" fill="#FB9125"></path><path d="M238.684 500.364H217.564V500.832H238.684V500.364Z" fill="#FB9125"></path><path d="M217.81 420.741H217.343V452.528H217.81V420.741Z" fill="#FB9125"></path><path d="M238.93 420.741H238.462V452.528H238.93V420.741Z" fill="#FB9125"></path><path d="M238.684 437.356H217.564V437.824H238.684V437.356Z" fill="#FB9125"></path><path d="M164.407 421.021H163.94V451.364H164.407V421.021Z" fill="#FB9125"></path><path d="M180.188 436.701H148.151V437.169H180.188V436.701Z" fill="#FB9125"></path><path d="M233.385 399.893C233.385 403.651 230.342 406.695 226.586 406.695C222.83 406.695 219.787 403.651 219.787 399.893C219.787 396.135 222.83 393.091 226.586 393.091C230.334 393.099 233.369 396.143 233.385 399.893Z" fill="#FB9125"></path><path d="M178.113 391.556L186.692 380.971V355.511H168.73V391.745L178.113 391.556Z" fill="#DADADA"></path><path opacity="0.2" d="M178.113 391.556V355.511H186.692V380.971L178.113 391.556Z" fill="black"></path><path d="M187.906 351.77H166.729V355.519H187.906V351.77Z" fill="#DADADA"></path><path d="M133.42 468.75H27.6814V541.037H133.42V468.75Z" fill="white"></path><path d="M92.8784 468.75H27.6814V541.037H92.8784V468.75Z" fill="#DADADA"></path><path d="M79.1567 540.906C79.0829 540.602 79.0583 540.282 79.0665 539.97V537.255C79.0665 534.744 79.0665 531.339 78.9189 527.08C78.9189 518.276 78.804 506.116 78.7302 492.052L79.2551 492.578H40.5503L41.0588 492.052C41.0588 506.116 40.9276 518.276 40.8702 527.08C40.8702 531.33 40.7553 534.744 40.7225 537.255C40.7225 538.338 40.7225 539.24 40.6323 539.97C40.6651 540.282 40.6651 540.594 40.6323 540.906C40.5503 540.602 40.5175 540.282 40.5421 539.97C40.5421 539.24 40.5421 538.338 40.5421 537.255C40.5421 534.744 40.5421 531.339 40.3945 527.08C40.3945 518.292 40.2796 506.116 40.2058 492.052V491.527H79.8621V492.052C79.7719 506.116 79.7144 518.276 79.657 527.08C79.657 531.33 79.5422 534.744 79.5094 537.255C79.5094 538.338 79.5094 539.24 79.5094 539.97C79.4274 540.29 79.3125 540.602 79.1731 540.906H79.1567Z" fill="#FB9125"></path><path d="M128.508 490.198H101.039V497.205H128.508V490.198Z" fill="#FB9125"></path><path d="M62.7693 412.012V415.737H200.767V411.971L62.7693 412.012Z" fill="#FF725E"></path><path d="M200.766 415.736L226.586 379.494L226.668 375.367L200.865 412.011L200.766 415.736Z" fill="#FF725E"></path><path d="M284.82 412.536H253.907V414.932H284.82V412.536Z" fill="#FF725E"></path><path opacity="0.3" d="M172.568 476.783H161.167V481.132H172.568V476.783Z" fill="black"></path><path d="M62.7693 412.012V415.737H200.767V411.971L62.7693 412.012Z" fill="#DADADA"></path><path d="M200.766 415.736L226.586 379.494L226.668 375.367L200.865 412.011L200.766 415.736Z" fill="#DADADA"></path><path d="M284.82 412.536H253.907V414.932H284.82V412.536Z" fill="#DADADA"></path><path opacity="0.3" d="M180.959 513.427C180.869 513.427 180.959 512.714 180.114 512.172C179.679 511.877 179.13 511.811 178.638 512C177.85 512.32 177.473 513.214 177.793 514.002C177.949 514.387 178.252 514.691 178.638 514.847C179.13 515.036 179.679 514.97 180.114 514.675C180.885 514.133 180.86 513.403 180.959 513.419C181.057 513.436 181.279 514.223 180.401 515.052C179.852 515.503 179.105 515.635 178.433 515.405C177.334 515.027 176.751 513.838 177.129 512.738C177.342 512.123 177.817 511.639 178.433 511.433C179.105 511.204 179.852 511.343 180.401 511.786C181.279 512.631 181.016 513.468 180.959 513.419V513.427Z" fill="black"></path><path d="M773.236 532.718C767.798 531.298 763.049 527.721 760.408 523.06C757.759 518.384 757.266 512.788 759.054 507.717C760.457 503.811 763.155 500.381 764.312 496.402C765.624 491.889 764.853 487.114 764.041 482.494C763.229 477.883 762.417 473.116 763.631 468.587C764.853 464.057 768.741 459.807 773.736 459.479C778.362 459.184 782.643 462.384 784.571 466.33C786.498 470.269 786.515 474.79 786.063 479.106C785.612 483.421 784.735 487.729 785.005 492.053C785.563 500.816 790.812 509.054 790.197 517.817C789.877 522.379 787.991 525.292 784.759 528.722C781.971 531.676 777.345 533.62 773.236 532.718Z" fill="#339700"></path><path d="M774.884 576.115C774.72 552.238 774.244 515.667 774.285 492.143C774.285 491.733 774.285 490.511 774.285 490.109C774.302 489.821 774.253 489.83 774.326 489.419C774.367 489.173 774.671 488.911 774.876 488.861C775.081 488.919 775.393 489.173 775.434 489.419C775.499 489.756 775.458 489.674 775.466 489.764V490.109C775.466 490.519 775.475 491.717 775.475 492.143C775.516 515.544 775.04 552.402 774.876 576.115H774.884ZM774.884 576.115C774.999 549.194 774.449 519.089 774.343 492.152C774.343 491.577 774.326 490.371 774.31 489.789C774.318 489.764 774.285 489.575 774.335 489.789C774.384 489.977 774.72 490.092 774.876 490.01C775.032 490.109 775.368 489.961 775.417 489.789C775.475 489.567 775.434 489.756 775.442 489.789C775.434 490.371 775.417 491.544 775.409 492.152C775.302 519.097 774.745 549.185 774.876 576.115H774.884Z" fill="#030303"></path><path d="M774.63 517.571C772.547 516.315 770.759 514.576 769.094 512.771L769.897 511.95C771.751 513.575 773.359 515.503 774.638 517.571H774.63ZM774.63 517.571C772.727 516.11 770.996 514.461 769.208 512.886L770.012 512.065C771.628 513.813 773.145 515.684 774.63 517.571Z" fill="#030303"></path><path d="M796.537 534.499C792.002 535.492 786.9 533.35 783.824 530.093C780.256 526.31 778.181 523.094 777.829 518.064C777.148 508.407 782.938 499.315 783.554 489.65C783.857 484.874 782.881 480.123 782.389 475.365C781.897 470.606 781.905 465.617 784.037 461.276C786.17 456.928 790.886 453.391 795.988 453.719C801.491 454.072 805.781 458.766 807.126 463.763C808.471 468.759 807.577 474.019 806.675 479.106C805.773 484.193 804.928 489.469 806.379 494.441C807.659 498.823 810.636 502.614 812.178 506.913C814.147 512.509 813.605 518.679 810.685 523.84C807.766 528.985 802.533 532.924 796.529 534.499" fill="#77BA1F"></path><path d="M794.634 534.565C794.626 520.985 794.47 500.546 794.405 487.131C794.405 487.049 794.388 487.065 794.421 486.852C794.454 486.655 794.651 486.491 794.725 486.441C794.79 486.474 794.995 486.63 795.036 486.827C795.085 487.221 795.069 487.828 795.085 488.238C795.192 494.277 795.29 504.501 795.356 510.647C795.512 531.561 795.446 558.548 795.11 579.364L795.085 580.858L795.069 581.605V581.982C795.053 582.064 795.069 582.048 795.036 582.261C795.003 582.466 794.798 582.63 794.725 582.671C794.659 582.638 794.454 582.482 794.413 582.277C794.372 582.064 794.396 582.064 794.388 581.99C794.454 568.649 794.61 548.087 794.618 534.556L794.634 534.565ZM794.634 534.565C794.684 547.98 794.782 568.37 795.028 581.613L795.036 581.982C795.036 582.031 795.053 582.154 795.02 582.064C794.987 581.982 794.79 581.966 794.725 582.031C794.659 581.949 794.454 581.99 794.429 582.064C794.405 582.154 794.429 582.007 794.413 581.974V581.605C794.413 581.194 794.413 579.816 794.413 579.364C794.388 574.039 794.306 563.89 794.265 558.45C794.126 536.944 794.265 509.646 794.421 488.247V487.5V487.131C794.421 487.081 794.405 486.958 794.437 487.049C794.47 487.131 794.667 487.147 794.733 487.073C794.798 487.155 794.995 487.114 795.02 487.04C795.044 486.95 795.02 487.098 795.028 487.139V487.508C794.774 500.677 794.675 521.198 794.626 534.556L794.634 534.565Z" fill="#030303"></path><path d="M795.774 516.924C797.398 515.299 798.563 513.199 800.253 511.615L801.097 512.477C799.416 514.602 797.136 516.161 795.028 517.81L794.987 517.769C795.258 517.49 795.52 517.211 795.774 516.924ZM795.774 516.924C795.52 517.211 795.266 517.506 795.028 517.802L794.987 517.761C795.414 517.342 795.963 516.752 796.316 516.276C797.456 514.774 798.793 513.026 800.13 511.73L800.974 512.592C799.227 513.904 797.292 515.324 795.783 516.916L795.774 516.924Z" fill="#030303"></path><path d="M264.135 524.57C258.697 523.151 253.948 519.573 251.307 514.913C248.658 510.236 248.165 504.64 249.953 499.569C251.356 495.664 254.054 492.234 255.211 488.255C256.523 483.742 255.752 478.966 254.94 474.347C254.128 469.736 253.316 464.968 254.53 460.439C255.752 455.91 259.64 451.66 264.635 451.331C269.261 451.036 273.542 454.236 275.47 458.183C277.397 462.121 277.413 466.642 276.962 470.958C276.511 475.274 275.634 479.582 275.904 483.906C276.462 492.669 281.711 500.907 281.096 509.67C280.776 514.232 278.89 517.145 275.658 520.575C272.87 523.528 268.244 525.473 264.135 524.57Z" fill="#339700"></path><path d="M265.775 567.975C265.611 544.098 265.135 507.528 265.176 484.004C265.176 483.593 265.176 482.371 265.176 481.969C265.193 481.682 265.144 481.69 265.217 481.28C265.258 481.033 265.562 480.771 265.767 480.722C265.972 480.779 266.284 481.033 266.325 481.28C266.39 481.616 266.349 481.534 266.357 481.624V481.969C266.357 482.379 266.366 483.577 266.366 484.004C266.407 507.405 265.931 544.262 265.767 567.975H265.775ZM265.775 567.975C265.89 541.054 265.34 510.949 265.234 484.012C265.234 483.438 265.217 482.231 265.201 481.649C265.209 481.624 265.176 481.436 265.226 481.649C265.275 481.838 265.611 481.952 265.767 481.87C265.923 481.969 266.259 481.821 266.308 481.649C266.366 481.427 266.325 481.616 266.333 481.649C266.325 482.231 266.308 483.405 266.3 484.012C266.193 510.958 265.644 541.046 265.767 567.975H265.775Z" fill="#030303"></path><path d="M265.529 509.423C263.445 508.168 261.657 506.428 259.992 504.623L260.796 503.803C262.65 505.427 264.257 507.356 265.537 509.423H265.529ZM265.529 509.423C263.626 507.963 261.895 506.314 260.107 504.738L260.911 503.918C262.527 505.665 264.044 507.536 265.529 509.423Z" fill="#030303"></path><path d="M287.436 526.351C282.901 527.344 277.799 525.203 274.723 521.945C271.155 518.163 269.08 514.946 268.728 509.917C268.047 500.259 273.837 491.168 274.453 481.502C274.756 476.727 273.78 471.976 273.288 467.217C272.796 462.458 272.804 457.469 274.936 453.129C277.069 448.78 281.785 445.244 286.887 445.572C292.39 445.925 296.68 450.618 298.025 455.615C299.37 460.612 298.476 465.871 297.574 470.959C296.68 476.046 295.827 481.322 297.279 486.294C298.558 490.676 301.535 494.466 303.077 498.766C305.046 504.362 304.504 510.532 301.585 515.693C298.665 520.838 293.432 524.776 287.428 526.351" fill="#77BA1F"></path><path d="M285.525 526.417C285.509 513.002 285.369 492.604 285.295 479.361V478.983C285.295 478.901 285.279 478.918 285.312 478.704C285.345 478.507 285.541 478.343 285.615 478.294C286.025 478.499 285.943 478.975 285.96 479.344C286.075 485.728 286.173 496.009 286.247 502.499C286.403 524.005 286.337 551.311 285.976 572.71L285.96 573.457V573.834C285.943 573.917 285.96 573.9 285.927 574.113C285.894 574.319 285.689 574.483 285.615 574.524C285.55 574.491 285.345 574.335 285.304 574.13C285.263 573.917 285.287 573.917 285.279 573.843V573.465C285.353 560.296 285.5 539.767 285.509 526.409L285.525 526.417ZM285.525 526.417C285.558 534.286 285.64 554.651 285.763 562.265C285.804 565.449 285.861 570.667 285.927 573.834C285.927 573.884 285.943 574.007 285.911 573.917C285.878 573.834 285.681 573.818 285.615 573.884C285.55 573.802 285.345 573.843 285.32 573.917C285.295 574.007 285.32 573.859 285.304 573.826V573.457C285.09 545.174 285 512.887 285.287 484.579C285.287 483.151 285.312 480.419 285.304 478.983C285.304 478.934 285.287 478.811 285.32 478.901C285.353 478.983 285.55 479 285.615 478.926C285.681 479.008 285.878 478.967 285.902 478.893C285.87 481.945 285.779 487.328 285.747 490.561C285.632 498.085 285.541 518.606 285.517 526.409L285.525 526.417Z" fill="#030303"></path><path d="M286.665 508.784C288.289 507.16 289.454 505.059 291.144 503.476L291.988 504.337C290.307 506.462 288.027 508.021 285.919 509.67L285.878 509.629C286.149 509.35 286.411 509.072 286.665 508.784ZM286.665 508.784C286.411 509.072 286.157 509.367 285.919 509.662L285.878 509.621C286.304 509.203 286.854 508.612 287.207 508.136C288.347 506.635 289.684 504.887 291.021 503.59L291.865 504.452C290.118 505.765 288.183 507.193 286.674 508.776L286.665 508.784Z" fill="#030303"></path><path d="M15.2473 515.938C9.80944 514.518 5.06053 510.941 2.41952 506.28C-0.229701 501.603 -0.721816 496.007 1.0662 490.937C2.46873 487.031 5.16716 483.601 6.32363 479.622C7.63594 475.109 6.86496 470.334 6.05297 465.714C5.24098 461.103 4.42899 456.336 5.64287 451.806C6.86496 447.277 10.7527 443.027 15.7476 442.699C20.3735 442.403 24.6549 445.603 26.5824 449.55C28.5098 453.488 28.5262 458.009 28.0751 462.325C27.624 466.641 26.7464 470.949 27.0171 475.273C27.5748 484.036 32.824 492.274 32.2089 501.037C31.889 505.599 30.0026 508.512 26.771 511.942C23.9824 514.896 19.3565 516.84 15.2473 515.938Z" fill="#339700"></path><path d="M16.8876 559.334C16.7236 535.457 16.2479 498.887 16.2889 475.363C16.2889 474.953 16.2889 473.73 16.2889 473.328C16.3053 473.041 16.2561 473.049 16.3299 472.639C16.3709 472.393 16.6744 472.13 16.8794 472.081C17.0845 472.138 17.3961 472.393 17.4371 472.639C17.5028 472.975 17.4617 472.893 17.4699 472.984V473.328C17.4699 473.739 17.4781 474.928 17.4781 475.363C17.5192 498.764 17.0434 535.622 16.8794 559.334H16.8876ZM16.8876 559.334C17.0024 532.413 16.4529 502.309 16.3463 475.371C16.3463 474.797 16.3299 473.591 16.3135 473.008C16.3217 472.984 16.2889 472.795 16.3381 473.008C16.3873 473.197 16.7236 473.312 16.8794 473.23C17.0352 473.328 17.3715 473.181 17.4207 473.008C17.4781 472.787 17.4371 472.975 17.4453 473.008C17.4371 473.591 17.4207 474.764 17.4125 475.371C17.3059 502.317 16.7564 532.405 16.8794 559.334H16.8876Z" fill="#030303"></path><path d="M16.6335 500.79C14.5502 499.535 12.7622 497.796 11.0972 495.99L11.901 495.17C13.7546 496.795 15.3622 498.723 16.6417 500.79H16.6335ZM16.6335 500.79C14.7306 499.33 13 497.681 11.212 496.105L12.0158 495.285C13.6316 497.032 15.1489 498.903 16.6335 500.79Z" fill="#030303"></path><path d="M38.549 517.719C34.0134 518.711 28.9118 516.57 25.8361 513.312C22.2682 509.53 20.1931 506.313 19.8405 501.284C19.1597 491.626 24.9502 482.535 25.5654 472.869C25.8689 468.094 24.8928 463.343 24.4007 458.584C23.9086 453.825 23.9168 448.837 26.0493 444.496C28.1818 440.147 32.8979 436.611 37.9995 436.939C43.503 437.292 47.7926 441.985 49.1377 446.982C50.4828 451.979 49.5888 457.239 48.6866 462.326C47.7844 467.413 46.9396 472.689 48.3913 477.661C49.6708 482.043 52.6481 485.833 54.1901 490.133C56.1585 495.729 55.6172 501.899 52.6973 507.06C49.7774 512.205 44.5446 516.143 38.5408 517.719" fill="#77BA1F"></path><path d="M36.638 517.784C36.6216 504.205 36.474 483.766 36.4084 470.35C36.4084 470.268 36.3919 470.285 36.4248 470.071C36.4576 469.874 36.6544 469.71 36.7282 469.661C36.7938 469.694 36.9989 469.85 37.0399 470.047C37.0891 470.441 37.0727 471.048 37.0891 471.458C37.3188 484.299 37.4254 504.738 37.4664 517.768C37.4254 530.855 37.327 551.163 37.0891 564.077L37.0727 564.824V565.202C37.0563 565.284 37.0727 565.267 37.0399 565.481C37.0071 565.686 36.802 565.85 36.7282 565.891C36.6626 565.858 36.4576 565.702 36.4166 565.497C36.3755 565.284 36.4001 565.284 36.3919 565.21C36.4576 551.868 36.6134 531.306 36.6216 517.776L36.638 517.784ZM36.638 517.784C36.679 530.871 36.7856 551.179 37.0153 564.086L37.0317 564.832V565.202C37.0317 565.251 37.0563 565.374 37.0317 565.284C36.9989 565.202 36.802 565.185 36.7364 565.251C36.6626 565.169 36.4658 565.21 36.4412 565.284C36.4166 565.374 36.4412 565.226 36.4248 565.193C36.4248 564.98 36.4248 564.299 36.4248 564.077C36.2279 538.256 36.1131 507.782 36.3673 481.92C36.4084 478.736 36.4001 473.296 36.4494 470.268C36.4822 470.35 36.679 470.367 36.7446 470.293C36.8102 470.375 37.0071 470.334 37.0317 470.26C37.0563 470.17 37.0317 470.318 37.0399 470.359V470.728C37.0235 471.138 36.9989 472.516 36.9907 472.968C36.7856 485.128 36.679 505.427 36.638 517.776V517.784Z" fill="#030303"></path><path d="M37.7781 500.151C39.4021 498.527 40.5668 496.426 42.2564 494.843L43.1012 495.704C41.4198 497.829 39.1396 499.388 37.0317 501.038L36.9907 500.997C37.2614 500.718 37.5238 500.439 37.7781 500.151ZM37.7781 500.151C37.5238 500.439 37.2696 500.734 37.0317 501.029L36.9907 500.988C37.4172 500.57 37.9668 499.979 38.3194 499.503C39.4595 498.002 40.7964 496.254 42.1333 494.958L42.9781 495.819C41.2311 497.132 39.2955 498.551 37.7863 500.143L37.7781 500.151Z" fill="#030303"></path></g><defs><clipPath id="clip0_866_1065"><rect width="1113" height="576" fill="white"></rect></clipPath></defs></svg>